<svg width="40" height="40" viewBox="0 0 100 100" fill="none" xmlns="http://www.w3.org/2000/svg">
<path d="M84.446 20.68C71.0901 10.64 53.3384 8.3547 38.5919 11.3827C22.0937 -6.72204 3.60589 1.60543 0 3.99937C0 3.99937 12.6875 16.2654 10.6267 27.0085C-4.39409 44.4298 2.74652 63.8263 10.6267 72.9854C12.6875 83.7285 0 95.9945 0 95.9945C3.57117 98.3963 22.0086 106.698 38.5919 88.6862C53.3054 91.6945 71.0571 89.4289 84.446 79.3712C105.151 64.332 105.219 35.7962 84.446 20.678V20.68ZM51.0728 79.2744C45.9094 79.2913 40.7664 78.5362 35.776 77.0286L32.3437 80.7993C30.4372 82.9028 28.3025 84.7209 25.9913 86.2093C23.1872 87.8156 20.141 88.8029 17.0139 89.1188C17.1875 88.7672 17.3402 88.4156 17.4948 88.0838C20.9288 80.8414 21.8547 74.3436 20.2725 68.5905C14.625 63.532 11.2448 57.0672 11.2448 49.9979C11.2448 33.8013 29.0815 20.68 51.0728 20.68C73.0641 20.68 90.9008 33.8013 90.9008 49.9979C90.9008 66.1946 73.0641 79.2744 51.0728 79.2744ZM31.9652 56.9704C30.3885 56.9958 28.8672 56.309 27.7347 55.0605C26.6023 53.8121 25.951 52.1038 25.9236 50.31C25.802 41.3446 37.6996 41.149 37.8194 50.0947V50.1954C37.8267 51.078 37.681 51.9536 37.3907 52.7721C37.1004 53.5906 36.6711 54.3359 36.1274 54.9655C35.5837 55.5951 34.9362 56.0966 34.222 56.4413C33.5079 56.786 32.741 56.9671 31.9652 56.9743V56.9704ZM44.7725 50.31C44.6353 41.3446 56.5329 41.1293 56.67 50.075V50.1954C56.7377 59.0997 44.9096 59.1964 44.7725 50.31ZM69.6648 56.9704C68.0879 56.9958 66.5664 56.309 65.4337 55.0606C64.3009 53.8123 63.6492 52.104 63.6214 50.31C63.5016 41.3446 75.3991 41.149 75.5189 50.0947V50.1954C75.5288 51.0788 75.3849 51.9557 75.0954 52.7754C74.806 53.5952 74.3768 54.3417 73.8326 54.9719C73.2884 55.6021 72.64 56.1034 71.9246 56.4471C71.2093 56.7908 70.4413 56.97 69.6648 56.9743V56.9704Z" fill="black"/>
</svg>
