<svg width="25" height="20" viewBox="0 0 25 20" fill="none" xmlns="http://www.w3.org/2000/svg">
<path d="M20.3125 18.75H16.2109C15.8887 18.75 15.625 18.4863 15.625 18.1641V16.2109C15.625 15.8887 15.8887 15.625 16.2109 15.625H20.3125C21.1768 15.625 21.875 14.9268 21.875 14.0625V4.6875C21.875 3.82324 21.1768 3.125 20.3125 3.125H16.2109C15.8887 3.125 15.625 2.86133 15.625 2.53906V0.585938C15.625 0.263672 15.8887 0 16.2109 0H20.3125C22.9004 0 25 2.09961 25 4.6875V14.0625C25 16.6504 22.9004 18.75 20.3125 18.75ZM18.0176 8.93555L9.81445 0.732422C9.08203 0 7.8125 0.512695 7.8125 1.5625V6.25H1.17188C0.522461 6.25 0 6.77246 0 7.42188V12.1094C0 12.7588 0.522461 13.2812 1.17188 13.2812H7.8125V17.9688C7.8125 19.0186 9.08203 19.5312 9.81445 18.7988L18.0176 10.5957C18.4717 10.1367 18.4717 9.39453 18.0176 8.93555Z" fill="white"/>
</svg>
