<svg width="30" height="19" viewBox="0 0 30 19" fill="none" xmlns="http://www.w3.org/2000/svg">
<path d="M29.0625 15.625H3.75V0.78125C3.75 0.349609 3.33047 0 2.8125 0H0.9375C0.419531 0 0 0.349609 0 0.78125V17.1875C0 18.0503 0.839648 18.75 1.875 18.75H29.0625C29.5805 18.75 30 18.4004 30 17.9688V16.4062C30 15.9746 29.5805 15.625 29.0625 15.625ZM27.1875 1.5625H20.2699C19.0172 1.5625 18.3896 2.82471 19.2756 3.56299L21.174 5.14502L16.875 8.72803L12.576 5.14551C11.8436 4.53516 10.6564 4.53516 9.92461 5.14551L5.89981 8.49951C5.53359 8.80469 5.53359 9.29932 5.89981 9.60449L7.22519 10.709C7.59141 11.0142 8.18496 11.0142 8.55117 10.709L11.25 8.45947L15.549 12.042C16.2814 12.6523 17.4686 12.6523 18.2004 12.042L23.8254 7.35449L25.7238 8.93652C26.6098 9.6748 28.1244 9.15186 28.1244 8.10791V2.34375C28.125 1.91211 27.7055 1.5625 27.1875 1.5625Z" fill="black"/>
</svg>
