<svg width="30" height="19" viewBox="0 0 30 19" fill="none" xmlns="http://www.w3.org/2000/svg">
<path d="M19.5 12.5H21.75C22.125 12.5 22.5 12.1875 22.5 11.875V5.3125C22.5 5 22.125 4.6875 21.75 4.6875H19.5C19.125 4.6875 18.75 5 18.75 5.3125V11.875C18.75 12.1875 19.125 12.5 19.5 12.5ZM25.125 12.5H27.375C27.75 12.5 28.125 12.1875 28.125 11.875V0.625C28.125 0.3125 27.75 0 27.375 0H25.125C24.75 0 24.375 0.3125 24.375 0.625V11.875C24.375 12.1875 24.75 12.5 25.125 12.5ZM8.25 12.5H10.5C10.875 12.5 11.25 12.1875 11.25 11.875V8.4375C11.25 8.125 10.875 7.8125 10.5 7.8125H8.25C7.875 7.8125 7.5 8.125 7.5 8.4375V11.875C7.5 12.1875 7.875 12.5 8.25 12.5ZM13.875 12.5H16.125C16.5 12.5 16.875 12.1875 16.875 11.875V2.1875C16.875 1.875 16.5 1.5625 16.125 1.5625H13.875C13.5 1.5625 13.125 1.875 13.125 2.1875V11.875C13.125 12.1875 13.5 12.5 13.875 12.5ZM29.0625 15.625H3.75V0.78125C3.75 0.349609 3.33047 0 2.8125 0H0.9375C0.419531 0 0 0.349609 0 0.78125V17.1875C0 18.0503 0.839648 18.75 1.875 18.75H29.0625C29.5805 18.75 30 18.4004 30 17.9688V16.4062C30 15.9746 29.5805 15.625 29.0625 15.625Z" fill="black"/>
</svg>
