<svg width="25" height="30" viewBox="0 0 25 30" fill="none" xmlns="http://www.w3.org/2000/svg">
<path d="M12.5 15C16.4453 15 19.6429 11.6426 19.6429 7.5C19.6429 3.35742 16.4453 0 12.5 0C8.55469 0 5.35714 3.35742 5.35714 7.5C5.35714 11.6426 8.55469 15 12.5 15ZM17.5 16.875H16.5681C15.3292 17.4727 13.9509 17.8125 12.5 17.8125C11.0491 17.8125 9.67634 17.4727 8.43192 16.875H7.5C3.35937 16.875 0 20.4023 0 24.75V27.1875C0 28.7402 1.19978 30 2.67857 30H22.3214C23.8002 30 25 28.7402 25 27.1875V24.75C25 20.4023 21.6406 16.875 17.5 16.875Z" fill="white"/>
</svg>
