<svg width="30" height="28" viewBox="0 0 30 28" fill="none" xmlns="http://www.w3.org/2000/svg">
<path d="M29.1061 15.2678H28.109C23.7254 15.2678 21.575 20.6077 24.7352 23.6456C25.0682 23.9658 25.6164 23.9918 25.9589 23.6817C28.093 21.7488 29.5611 19.1431 29.9918 16.2141C30.0656 15.7126 29.6327 15.2678 29.1061 15.2678ZM28.2331 11.8325C27.7787 5.49947 22.5144 0.438752 15.9265 0.00191699C15.4236 -0.0314818 15.0001 0.376196 15.0001 0.860743V4.72315C15.0001 9.14143 18.5818 12.7231 23.0001 12.7231H27.3403C27.8443 12.7231 28.2679 12.316 28.2331 11.8325ZM14.8086 17.6286C13.2397 16.1203 12.353 14.0378 12.353 11.8615V2.68813C12.353 2.18185 11.8903 1.76569 11.3692 1.83673C4.79735 2.72949 -0.225982 8.24877 0.00784109 14.8633C0.248281 21.6565 6.33264 27.2272 13.4025 27.1419C16.1819 27.1085 18.7501 26.2475 20.8616 24.8077C21.2973 24.5108 21.326 23.8943 20.9482 23.5311L14.8086 17.6286Z" fill="black"/>
</svg>
