<svg width="30" height="18" viewBox="0 0 30 18" fill="none" xmlns="http://www.w3.org/2000/svg">
<path d="M0 16.25C0 16.9402 0.671719 17.5 1.5 17.5H28.5C29.3283 17.5 30 16.9402 30 16.25V3.75H0V16.25ZM21 8.125C21 7.77969 21.3356 7.5 21.75 7.5H26.25C26.6644 7.5 27 7.77969 27 8.125V9.375C27 9.72031 26.6644 10 26.25 10H21.75C21.3356 10 21 9.72031 21 9.375V8.125ZM21 12.8125C21 12.6398 21.1678 12.5 21.375 12.5H26.625C26.8322 12.5 27 12.6398 27 12.8125V13.4375C27 13.6102 26.8322 13.75 26.625 13.75H21.375C21.1678 13.75 21 13.6102 21 13.4375V12.8125ZM3 9.0625C3 8.88984 3.16781 8.75 3.375 8.75H17.625C17.8322 8.75 18 8.88984 18 9.0625V9.6875C18 9.86016 17.8322 10 17.625 10H3.375C3.16781 10 3 9.86016 3 9.6875V9.0625ZM3 12.8125C3 12.6398 3.16781 12.5 3.375 12.5H11.625C11.8322 12.5 12 12.6398 12 12.8125V13.4375C12 13.6102 11.8322 13.75 11.625 13.75H3.375C3.16781 13.75 3 13.6102 3 13.4375V12.8125ZM29.25 0H0.75C0.335625 0 0 0.279687 0 0.625V2.5H30V0.625C30 0.279687 29.6644 0 29.25 0Z" fill="white"/>
</svg>
