<svg id="Layer_1" data-name="Layer 1" xmlns="http://www.w3.org/2000/svg" viewBox="0 0 128 128"><title>PAPER PLANE</title><path d="M127.994,16.609a1.763,1.763,0,0,0-2.13-1.774L1.363,43.043A1.75,1.75,0,0,0,.775,46.2L34.712,68.956l19.071,36.4a1.773,1.773,0,0,0,2.721.489L70.695,93.08l29.581,19.832a1.75,1.75,0,0,0,2.667-1.008l25-94.917A1.84,1.84,0,0,0,127.994,16.609ZM59.2,82.941a1.82,1.82,0,0,0-.416.759L54.757,99.672,38.392,68.437l78.027-44.3L59.23,82.908C59.221,82.918,59.214,82.931,59.2,82.941Zm55.887-62.077-78.96,44.83L6.1,45.559ZM58.437,99.4l.293-1.16,2.845-11.272,6.122,4.1Zm41.747,9.239L71.517,89.417l0,0L63.2,83.844l59.659-61.311Z"/></svg>